<svg width="2115" height="196" viewBox="0 0 2115 196" fill="none" xmlns="http://www.w3.org/2000/svg">
<path fill-rule="evenodd" clip-rule="evenodd" d="M0 96.7897L88.125 78.1573C176.25 59.525 352.5 22.2601 528.75 38.7951C705 55.3302 881.25 135.073 1057.5 153.705C1233.75 172.337 1410 135.073 1586.25 106.297C1762.5 77.5205 1938.75 57.1731 2026.88 47.1846L2115 38.7951V196H2026.88C1938.75 196 1762.5 196 1586.25 196C1410 196 1233.75 196 1057.5 196C881.25 196 705 196 528.75 196C352.5 196 176.25 196 88.125 196H0V96.7897Z" fill="#A5D7E8"/>
</svg>